HIERARCHY
ROOT Hips
{
	OFFSET 0.000000 97.167313 0.000000
	CHANNELS 6 Xposition Yposition Zposition Xrotation Yrotation Zrotation
	JOINT Spine
	{
		OFFSET 0.000000 13.784798 0.064400
		CHANNELS 3 Xrotation Yrotation Zrotation
		JOINT Spine1
		{
			OFFSET 0.000000 12.037903 0.404700
			CHANNELS 3 Xrotation Yrotation Zrotation
			JOINT Spine2
			{
				OFFSET 0.000000 17.795601 0.420200
				CHANNELS 3 Xrotation Yrotation Zrotation
				JOINT Neck
				{
					OFFSET 0.000000 39.131302 11.954600
					CHANNELS 3 Xrotation Yrotation Zrotation
					JOINT Head
					{
						OFFSET 0.000000 14.456192 15.627699
						CHANNELS 3 Xrotation Yrotation Zrotation
						JOINT HeadTop_End
						{
							OFFSET 0.000000 15.703506 7.603401
							CHANNELS 3 Xrotation Yrotation Zrotation
							End Site
							{
								OFFSET 0.000000 17.447403 0.000000
							}
						}
					}
				}
				JOINT LeftShoulder
				{
					OFFSET 17.399500 24.608795 1.168800
					CHANNELS 3 Xrotation Yrotation Zrotation
					JOINT LeftArm
					{
						OFFSET 18.980635 5.765305 1.818600
						CHANNELS 3 Xrotation Yrotation Zrotation
						JOINT LeftForeArm
						{
							OFFSET 49.290169 0.000000 0.000000
							CHANNELS 3 Xrotation Yrotation Zrotation
							JOINT LeftHand
							{
								OFFSET 31.562012 0.000000 0.000000
								CHANNELS 3 Xrotation Yrotation Zrotation
								JOINT LeftHandThumb1
								{
									OFFSET 6.133995 -4.388519 7.076070
									CHANNELS 3 Xrotation Yrotation Zrotation
									JOINT LeftHandThumb2
									{
										OFFSET 6.037666 -3.485840 3.485847
										CHANNELS 3 Xrotation Yrotation Zrotation
										JOINT LeftHandThumb3
										{
											OFFSET 6.496506 -3.750763 3.750761
											CHANNELS 3 Xrotation Yrotation Zrotation
											JOINT LeftHandThumb4
											{
												OFFSET 5.616882 -3.242905 3.242910
												CHANNELS 3 Xrotation Yrotation Zrotation
												End Site
												{
													OFFSET -1.254608 7.132141 0.375429
												}
											}
										}
									}
								}
								JOINT LeftHandPinky1
								{
									OFFSET 18.920792 -0.453171 -11.426712
									CHANNELS 3 Xrotation Yrotation Zrotation
									JOINT LeftHandPinky2
									{
										OFFSET 4.919586 0.000000 0.000000
										CHANNELS 3 Xrotation Yrotation Zrotation
										JOINT LeftHandPinky3
										{
											OFFSET 5.233047 0.000000 0.000000
											CHANNELS 3 Xrotation Yrotation Zrotation
											JOINT LeftHandPinky4
											{
												OFFSET 5.571716 0.000000 0.000000
												CHANNELS 3 Xrotation Yrotation Zrotation
												End Site
												{
													OFFSET -3.459808 4.342407 -0.466164
												}
											}
										}
									}
								}
								JOINT LeftHandRing1
								{
									OFFSET 22.726120 -0.094986 -6.500475
									CHANNELS 3 Xrotation Yrotation Zrotation
									JOINT LeftHandRing2
									{
										OFFSET 6.408615 0.000000 0.000000
										CHANNELS 3 Xrotation Yrotation Zrotation
										JOINT LeftHandRing3
										{
											OFFSET 6.150223 0.000000 0.000000
											CHANNELS 3 Xrotation Yrotation Zrotation
											JOINT LeftHandRing4
											{
												OFFSET 6.145386 0.000000 0.000000
												CHANNELS 3 Xrotation Yrotation Zrotation
												End Site
												{
													OFFSET -3.671402 4.923981 -0.202372
												}
											}
										}
									}
								}
								JOINT LeftHandMiddle1
								{
									OFFSET 23.373947 0.000000 0.000001
									CHANNELS 3 Xrotation Yrotation Zrotation
									JOINT LeftHandMiddle2
									{
										OFFSET 6.996567 0.000000 0.000000
										CHANNELS 3 Xrotation Yrotation Zrotation
										JOINT LeftHandMiddle3
										{
											OFFSET 7.015945 0.000000 0.000000
											CHANNELS 3 Xrotation Yrotation Zrotation
											JOINT LeftHandMiddle4
											{
												OFFSET 7.721573 0.000000 0.000000
												CHANNELS 3 Xrotation Yrotation Zrotation
												End Site
												{
													OFFSET -4.651108 6.158463 0.251582
												}
											}
										}
									}
								}
								JOINT LeftHandIndex1
								{
									OFFSET 21.310577 -0.490082 6.209344
									CHANNELS 3 Xrotation Yrotation Zrotation
									JOINT LeftHandIndex2
									{
										OFFSET 7.536453 0.000000 0.000000
										CHANNELS 3 Xrotation Yrotation Zrotation
										JOINT LeftHandIndex3
										{
											OFFSET 7.512344 0.000000 0.000000
											CHANNELS 3 Xrotation Yrotation Zrotation
											JOINT LeftHandIndex4
											{
												OFFSET 10.212402 0.000000 0.000001
												CHANNELS 3 Xrotation Yrotation Zrotation
												End Site
												{
													OFFSET -5.180801 8.690506 1.388433
												}
											}
										}
									}
								}
							}
						}
					}
				}
				JOINT RightShoulder
				{
					OFFSET -17.399500 24.608795 1.168800
					CHANNELS 3 Xrotation Yrotation Zrotation
					JOINT RightArm
					{
						OFFSET -18.980635 5.765305 1.818600
						CHANNELS 3 Xrotation Yrotation Zrotation
						JOINT RightForeArm
						{
							OFFSET -49.290169 0.000000 0.000000
							CHANNELS 3 Xrotation Yrotation Zrotation
							JOINT RightHand
							{
								OFFSET -31.562012 0.000000 0.000000
								CHANNELS 3 Xrotation Yrotation Zrotation
								JOINT RightHandThumb1
								{
									OFFSET -6.133995 -4.388519 7.076070
									CHANNELS 3 Xrotation Yrotation Zrotation
									JOINT RightHandThumb2
									{
										OFFSET -6.037666 -3.485840 3.485847
										CHANNELS 3 Xrotation Yrotation Zrotation
										JOINT RightHandThumb3
										{
											OFFSET -6.496506 -3.750763 3.750761
											CHANNELS 3 Xrotation Yrotation Zrotation
											JOINT RightHandThumb4
											{
												OFFSET -5.616882 -3.242905 3.242910
												CHANNELS 3 Xrotation Yrotation Zrotation
												End Site
												{
													OFFSET 1.254608 7.132141 0.375429
												}
											}
										}
									}
								}
								JOINT RightHandIndex1
								{
									OFFSET -21.310577 -0.490082 6.209344
									CHANNELS 3 Xrotation Yrotation Zrotation
									JOINT RightHandIndex2
									{
										OFFSET -7.536453 0.000000 0.000000
										CHANNELS 3 Xrotation Yrotation Zrotation
										JOINT RightHandIndex3
										{
											OFFSET -7.512344 0.000000 0.000000
											CHANNELS 3 Xrotation Yrotation Zrotation
											JOINT RightHandIndex4
											{
												OFFSET -10.212402 0.000000 0.000001
												CHANNELS 3 Xrotation Yrotation Zrotation
												End Site
												{
													OFFSET 5.180801 8.690506 1.388433
												}
											}
										}
									}
								}
								JOINT RightHandMiddle1
								{
									OFFSET -23.373947 0.000000 0.000001
									CHANNELS 3 Xrotation Yrotation Zrotation
									JOINT RightHandMiddle2
									{
										OFFSET -6.996567 0.000000 0.000000
										CHANNELS 3 Xrotation Yrotation Zrotation
										JOINT RightHandMiddle3
										{
											OFFSET -7.015945 0.000000 0.000000
											CHANNELS 3 Xrotation Yrotation Zrotation
											JOINT RightHandMiddle4
											{
												OFFSET -7.721573 0.000000 0.000000
												CHANNELS 3 Xrotation Yrotation Zrotation
												End Site
												{
													OFFSET 4.651108 6.158463 0.251582
												}
											}
										}
									}
								}
								JOINT RightHandRing1
								{
									OFFSET -22.726120 -0.094986 -6.500475
									CHANNELS 3 Xrotation Yrotation Zrotation
									JOINT RightHandRing2
									{
										OFFSET -6.408615 0.000000 0.000000
										CHANNELS 3 Xrotation Yrotation Zrotation
										JOINT RightHandRing3
										{
											OFFSET -6.150223 0.000000 0.000000
											CHANNELS 3 Xrotation Yrotation Zrotation
											JOINT RightHandRing4
											{
												OFFSET -6.145386 0.000000 0.000000
												CHANNELS 3 Xrotation Yrotation Zrotation
												End Site
												{
													OFFSET 3.671402 4.923981 -0.202372
												}
											}
										}
									}
								}
								JOINT RightHandPinky1
								{
									OFFSET -18.920792 -0.453171 -11.426712
									CHANNELS 3 Xrotation Yrotation Zrotation
									JOINT RightHandPinky2
									{
										OFFSET -4.919586 0.000000 0.000000
										CHANNELS 3 Xrotation Yrotation Zrotation
										JOINT RightHandPinky3
										{
											OFFSET -5.233047 0.000000 0.000000
											CHANNELS 3 Xrotation Yrotation Zrotation
											JOINT RightHandPinky4
											{
												OFFSET -5.571716 0.000000 0.000000
												CHANNELS 3 Xrotation Yrotation Zrotation
												End Site
												{
													OFFSET 3.459808 4.342407 -0.466164
												}
											}
										}
									}
								}
							}
						}
					}
				}
			}
		}
	}
	JOINT LeftUpLeg
	{
		OFFSET 19.899099 -7.885101 -3.429500
		CHANNELS 3 Xrotation Yrotation Zrotation
		JOINT LeftLeg
		{
			OFFSET 1.745560 -36.997807 10.304700
			CHANNELS 3 Xrotation Yrotation Zrotation
			JOINT LeftFoot
			{
				OFFSET -1.745558 -29.803308 -13.615400
				CHANNELS 3 Xrotation Yrotation Zrotation
				JOINT LeftToeBase
				{
					OFFSET 1.181900 -18.539904 15.226099
					CHANNELS 3 Xrotation Yrotation Zrotation
					JOINT LeftToe_End
					{
						OFFSET -0.863701 1.402801 16.534700
						CHANNELS 3 Xrotation Yrotation Zrotation
						End Site
						{
							OFFSET 0.000000 16.616566 0.000000
						}
					}
				}
			}
		}
	}
	JOINT RightUpLeg
	{
		OFFSET -19.899099 -7.885101 -3.429500
		CHANNELS 3 Xrotation Yrotation Zrotation
		JOINT RightLeg
		{
			OFFSET -1.745560 -36.997807 10.304700
			CHANNELS 3 Xrotation Yrotation Zrotation
			JOINT RightFoot
			{
				OFFSET 1.745558 -29.803308 -13.615400
				CHANNELS 3 Xrotation Yrotation Zrotation
				JOINT RightToeBase
				{
					OFFSET -1.181900 -18.539904 15.226099
					CHANNELS 3 Xrotation Yrotation Zrotation
					JOINT RightToe_End
					{
						OFFSET 0.863701 1.402801 16.534700
						CHANNELS 3 Xrotation Yrotation Zrotation
						End Site
						{
							OFFSET 0.000000 16.616566 0.000000
						}
					}
				}
			}
		}
	}
}
MOTION
Frames: 4
Frame Time: 0.033333
-1.746136 61.755516 1.539125 16.053446 3.851217 5.972042 11.282873 -16.702545 10.297062 2.869500 -4.087944 0.126400 2.861622 -4.312291 0.311451 -0.688861 2.356461 -4.369684 -6.952094 9.295695 -11.115076 0.000000 0.000000 -0.000001 2.870357 -11.957094 6.152313 -33.803672 -70.877549 -6.927816 -0.000112 -94.709582 -0.000150 15.904408 -20.838187 11.426080 -14.374000 -24.771103 -3.357595 9.911688 43.709382 5.001426 -9.012739 -8.993966 12.231282 -0.000001 -0.000000 0.000002 3.725298 7.962763 -54.775160 2.215619 4.587668 -51.537985 2.214905 4.587116 -51.529204 -0.000001 -0.000001 -0.000002 2.757890 7.484247 -44.479835 1.527762 3.946331 -42.313210 1.667305 4.094009 -44.303571 0.000001 0.000000 0.000003 1.835602 6.790032 -33.465232 1.023784 3.310328 -34.362467 1.141453 3.475902 -36.350383 0.000001 -0.000001 0.000002 0.614974 5.226368 -14.494944 0.212942 1.566675 -15.479594 0.212825 1.566225 -15.474958 -0.000000 0.000002 -0.000003 1.124711 1.331168 15.116532 -9.590843 -31.513181 40.008403 0.000000 10.721240 -0.000001 16.783651 19.030326 -20.612602 -6.394895 8.753168 -2.624464 8.238582 -29.438518 -1.698675 -7.571686 8.339937 -10.032576 0.000001 0.000002 -0.000003 -1.791216 6.483438 11.714579 0.189235 -1.315439 16.372469 0.199571 -1.350090 16.816595 -0.000004 -0.000003 -0.000002 -1.298708 1.214686 17.888067 0.309495 -1.671002 20.984583 0.372132 -1.825905 23.037349 -0.000001 -0.000001 -0.000004 -0.118583 -2.982247 25.427669 0.400608 -1.891400 23.914996 0.468798 -2.038153 25.903631 0.000000 -0.000002 -0.000000 0.003133 -3.566919 32.442091 0.622465 -2.327935 29.936139 0.622136 -2.327390 29.928301 -0.000003 0.000001 -0.000001 31.801221 4.961446 -5.767958 26.832028 7.539095 -10.297921 -32.820866 18.166541 -15.112125 -42.282406 0.000001 0.000002 0.000001 -0.000000 -0.000000 -92.508724 0.549534 -0.004955 42.532093 -13.582032 -1.608387 25.052628 -26.179243 -13.923769 -4.473267 -0.000005 0.000007 -0.000000 0.000001 -0.000000 
-0.499179 60.228142 3.958113 18.301214 1.680034 6.408997 10.617778 -14.948380 10.608604 3.846086 -4.079516 1.418961 3.827175 -4.283289 1.575168 -0.281764 2.406653 -4.755143 -6.899499 9.323136 -11.182734 0.000001 -0.000001 0.000000 2.835715 -11.265045 8.406573 -38.251610 -66.698020 -9.932766 0.000369 -86.548496 0.000339 14.167675 -20.123054 13.234198 -13.928557 -24.032258 -2.937858 9.745592 42.423080 4.887045 -8.935757 -8.640975 12.275269 -0.000001 -0.000001 0.000005 3.462300 7.836422 -52.620532 2.047075 4.449007 -49.398865 2.046431 4.448459 -49.390488 -0.000000 0.000002 -0.000002 2.562034 7.341470 -42.755724 1.409046 3.812153 -40.558585 1.538302 3.957839 -42.466083 0.000001 -0.000000 0.000007 1.708014 6.650912 -32.202180 0.943068 3.189282 -32.938731 1.051764 3.350817 -34.844036 -0.000000 -0.000000 0.000006 0.578650 5.131779 -14.022551 0.195796 1.503405 -14.839339 0.195677 1.502950 -14.834809 -0.000000 -0.000000 -0.000001 1.293152 1.967096 17.846979 -11.722290 -30.770528 36.049038 -0.000000 9.957437 0.000007 13.035927 18.893842 -19.005509 -7.007022 8.486680 -2.414504 8.212110 -29.228070 -1.713727 -7.559177 8.267731 -10.075169 -0.000001 -0.000002 0.000002 -1.726298 6.435405 11.391956 0.180982 -1.286993 16.008806 0.189759 -1.317199 16.394901 -0.000002 0.000000 -0.000001 -1.238574 1.174897 17.374697 0.299735 -1.645353 20.647331 0.356530 -1.788820 22.542981 -0.000000 -0.000001 -0.000004 -0.084507 -3.014522 24.716139 0.388080 -1.862931 23.532826 0.451932 -2.003098 25.425577 -0.000003 -0.000001 -0.000003 0.070037 -3.638782 31.657387 0.598709 -2.286227 29.346283 0.597424 -2.283970 29.314253 -0.000002 -0.000004 0.000007 28.428518 4.967028 -4.785342 29.275803 6.084646 -11.180060 -16.884284 16.517925 -21.901879 -59.829718 0.000007 -0.000012 0.000000 0.000003 -0.000000 -96.938846 0.068216 1.051254 47.207074 -12.349332 -1.692828 23.337556 -25.531783 -13.027845 -4.473265 0.000007 0.000000 0.000000 0.000000 -0.000000 
1.165568 57.757980 5.623856 20.595561 -0.385142 6.597221 9.987495 -13.175135 11.300042 4.865334 -4.107768 2.797809 4.838803 -4.292397 2.923989 0.147601 2.459786 -5.145291 -6.853746 9.374242 -11.245685 0.000001 -0.000001 0.000000 2.670837 -10.255886 12.481588 -43.617960 -58.745836 -11.868582 -0.000019 -70.856867 -0.000035 11.187932 -19.275847 17.180765 -13.125931 -22.691485 -2.201788 9.449629 40.099522 4.670938 -8.798463 -8.002901 12.353245 -0.000001 0.000001 -0.000003 2.996601 7.572075 -48.731429 1.756275 4.182998 -45.536318 1.755712 4.182453 -45.528627 0.000001 0.000000 -0.000002 2.220398 7.062388 -39.643569 1.205262 3.560793 -37.389999 1.316613 3.701656 -39.147987 0.000000 -0.000001 0.000003 1.489719 6.393387 -29.922447 0.805009 2.965639 -30.367458 0.898219 3.119058 -32.123544 -0.000000 0.000000 0.000011 0.518721 4.970944 -13.169651 0.166609 1.388598 -13.682744 0.166499 1.388172 -13.678419 -0.000000 0.000001 0.000001 1.411374 3.451206 22.910031 -15.678271 -29.080278 29.076180 -0.000001 8.473616 0.000003 5.511412 18.097438 -15.712560 -8.190242 7.976491 -2.033493 8.162347 -28.832646 -1.742089 -7.546549 8.164218 -10.147706 0.000002 0.000002 0.000002 -1.602405 6.354701 10.751704 0.165452 -1.231599 15.302110 0.171460 -1.253330 15.579142 -0.000000 -0.000001 -0.000003 -1.125305 1.100428 16.362570 0.281484 -1.596086 20.001835 0.327453 -1.717127 21.592569 0.000001 0.000001 -0.000008 -0.021500 -3.082089 23.319623 0.364693 -1.808294 22.802506 0.420569 -1.935782 24.512905 0.000001 -0.000002 -0.000005 0.195331 -3.789985 30.126366 0.554203 -2.205248 28.210249 0.551338 -2.199946 28.136087 -0.000001 -0.000002 0.000002 17.887478 7.413764 -3.056238 35.218935 0.952250 -12.051967 6.197333 7.557222 -21.560267 -80.317335 1.663021 -4.102696 0.000000 -0.000001 -0.000000 -102.487904 0.002918 1.714123 51.479327 -11.817078 -1.763298 23.326004 -24.433257 -11.828541 -4.473264 0.000001 -0.000002 0.000000 -0.000001 -0.000000 
2.981486 55.161743 7.056236 22.921080 -2.373479 6.777560 9.326920 -11.446175 12.103105 5.895374 -4.139165 4.189811 5.866010 -4.304704 4.285673 0.580503 2.513303 -5.536178 -6.808436 9.432782 -11.306355 -0.000002 0.000000 -0.000000 2.526787 -10.022344 16.053526 -46.599474 -50.074760 -10.395982 -0.000003 -53.257372 -0.000010 9.268772 -19.260604 22.790080 -12.357416 -21.495734 -1.565418 9.189120 38.027679 4.468615 -8.677951 -7.433499 12.421243 -0.000001 0.000000 0.000003 2.575310 7.277993 -45.267243 1.512703 3.929780 -42.094019 1.512225 3.929243 -42.086967 -0.000001 0.000001 -0.000004 1.923162 6.781454 -36.870321 1.035555 3.327437 -34.565590 1.131791 3.462730 -36.190563 -0.000000 0.000002 0.000002 1.311877 6.164204 -27.892102 0.690488 2.761161 -28.075233 0.770738 2.906447 -29.698462 0.000001 -0.000001 0.000004 0.477071 4.865607 -12.410141 0.142545 1.285745 -12.651471 0.142442 1.285332 -12.647230 -0.000002 0.000005 0.000002 1.077655 5.775633 27.963583 -19.066231 -27.740561 23.063648 0.000002 6.773797 0.000000 -3.860497 15.703423 -11.202464 -9.540926 7.414927 -1.673258 8.110525 -28.422524 -1.773800 -7.557048 8.175863 -10.193859 -0.000001 -0.000001 0.000002 -1.462248 6.307748 9.964423 0.148346 -1.167276 14.484658 0.151689 -1.180167 14.648420 0.000000 -0.000001 -0.000001 -0.999888 1.027056 15.141194 0.261990 -1.541480 19.289504 0.296331 -1.636331 20.528960 0.000002 0.000001 0.000003 0.047705 -3.172551 21.656582 0.339818 -1.747980 22.000745 0.387480 -1.861548 23.514203 -0.000002 0.000001 -0.000003 0.337526 -3.995097 28.335031 0.506023 -2.113067 26.931713 0.502120 -2.105394 26.825903 -0.000000 0.000000 0.000004 11.147740 10.874151 -0.816706 40.735347 -4.275536 -12.947640 18.490167 2.752333 -22.256960 -88.430288 3.420576 -5.363723 0.000000 0.000003 -0.000000 -108.149215 0.336289 2.080624 55.188738 -11.734102 -1.739047 24.095818 -22.927121 -10.390244 -4.473263 0.000003 0.000004 0.000000 0.000000 0.000000 
